<?xml version="1.0" encoding="utf-8"?>
<!-- Svg Vector Icons : http://www.onlinewebfonts.com/icon -->
<!DOCTYPE svg PUBLIC "-//W3C//DTD SVG 1.1//EN" "http://www.w3.org/Graphics/SVG/1.1/DTD/svg11.dtd">
<svg version="1.1" xmlns="http://www.w3.org/2000/svg" xmlns:xlink="http://www.w3.org/1999/xlink" x="0px" y="0px" viewBox="0 0 256 256" enable-background="new 0 0 256 256" xml:space="preserve">
<metadata> Svg Vector Icons : http://www.onlinewebfonts.com/icon </metadata>
<g><g><path fill="#000000" d="M109.2,41.1v53.4h10.4V52.4h115.9v152.5H119.6v-9.5h-10.4v19.5H246V41.1H109.2z"/><path fill="#000000" d="M196.8,111.3c0-8.9-7.2-17-16-17l-71.4,0l-0.1-21.6c-8.2,0-15,4.6-23.9,9.7c-0.6,0.9-17,3.2-33.2,17.7c-3.1-2.2-6.9-2.7-11-2.7H29.2c-10.6,0-19.2,7.9-19.2,18.6v59.4c0,10.7,8.6,20,19.2,20h12c7,0,13.1-4.4,16.5-10.1h0.1c1.8,1.1,4,2.2,6.8,3.4c6.2,2.6,15,5.3,26.7,6.3c1,0.2,2.1,0.3,3.2,0.3h2.1c1.7,0.1,3.4,0.1,5.2,0.1v-0.1h65.2c8.8,0,16-7.5,16-16.4c0-3.3-1-6.4-2.7-8.9c7.8-3.5,8.9-19.8,7.1-22.4c4.4-2.9,8.2-3.8,9-12c0.8-7.5-4.5-8.3-6.3-10.9C194.7,121.9,196.8,117,196.8,111.3L196.8,111.3z M52.5,129.8v45.7c0,5.3-4.3,10.3-9.6,10.3H42H29.2c-5.3,0-9.6-4.9-9.6-10.3v-59.4c0-5.3,4.3-9.2,9.6-9.2h13.6c5.3,0,9.6,3.8,9.6,9.2V129.8L52.5,129.8z M180.8,117.2h-25.5l0,0h-33.8c-2.7,0-4.9,2.2-4.9,5c0,2.7,2.2,5,4.9,5h47.8v0h6.9c3.5,0,12.5-0.6,12,7.2c-0.4,6.6-8.5,5.9-12,5.9h-4.6h-5.5h-44.9h-2.9c-2.7,0-4.9,2.2-4.9,4.9c0,2.7,2.2,4.9,4.9,4.9h1.2h46.6h5.5c3.5,0,6.4,3.2,6.4,6.7c0,3.5-2.8,6.4-6.4,6.4h-2.9c-0.6-0.1-1.1-0.2-1.7-0.2h-49.7v0h-2.2c-2.7,0-4.9,2.2-4.9,4.9c0,2.7,2.2,4.9,4.9,4.9h0.5H163h5.5c2.8,0.7,5,3.2,5,6.3c0,3.6-2.8,6.7-6.4,6.7h-53.7H96.7c-1.3,0-2.6-0.1-3.8-0.2c-2.9-0.2-5.7-0.5-8.2-0.9c-2-0.3-3.8-0.9-5.5-1.3c-4.4-1-8-2.2-10.9-3.4c-3.3-1.4-3.8-2.8-5.3-3.7c-0.3-0.2-0.5-0.4-0.7-0.5v-0.1v-58.1v-1.4c0-1.2-0.1-2.4-0.3-3.5c-0.3-1.7-2.7-3.3-3.5-4.9l0.1-0.1l1.2-1.2l0,0c6.2-5.6,36.1-10.5,38.9-21.3c0,0-0.1,18.9,0.4,19h0.3h8.9h49.3h23.2c3.5,0,6.4,3.7,6.4,7.2C187.2,114.9,184.4,117.2,180.8,117.2L180.8,117.2z"/><path fill="#000000" d="M136.4,68.3h82.1V80h-82.1V68.3L136.4,68.3z"/><path fill="#000000" d="M202.8,100.1h19.8v13.8h-19.8V100.1L202.8,100.1z"/><path fill="#000000" d="M202.8,134h19.8v13.8h-19.8V134L202.8,134z"/><path fill="#000000" d="M202.8,167.9h19.8v13.8h-19.8V167.9L202.8,167.9z"/></g></g>
</svg>